HIERARCHY
ROOT Hips
{
	OFFSET 0.00000 0.00000 0.00000
	CHANNELS 6 Xposition Yposition Zposition Zrotation Yrotation Xrotation 
	JOINT LHipJoint
	{
		OFFSET 0 0 0
		CHANNELS 3 Zrotation Yrotation Xrotation
		JOINT LeftUpLeg
		{
			OFFSET 1.77779 -1.88989 0.48267
			CHANNELS 3 Zrotation Yrotation Xrotation
			JOINT LeftLeg
			{
				OFFSET 2.53442 -6.96327 0.00000
				CHANNELS 3 Zrotation Yrotation Xrotation
				JOINT LeftFoot
				{
					OFFSET 2.71068 -7.44755 0.00000
					CHANNELS 3 Zrotation Yrotation Xrotation
					JOINT LeftToeBase
					{
						OFFSET 0.17992 -0.49431 2.22524
						CHANNELS 3 Zrotation Yrotation Xrotation
						End Site
						{
							OFFSET 0.00000 -0.00000 1.14687
						}
					}
				}
			}
		}
	}
	JOINT RHipJoint
	{
		OFFSET 0 0 0
		CHANNELS 3 Zrotation Yrotation Xrotation
		JOINT RightUpLeg
		{
			OFFSET -1.58469 -1.88989 0.48267
			CHANNELS 3 Zrotation Yrotation Xrotation
			JOINT RightLeg
			{
				OFFSET -2.60386 -7.15404 0.00000
				CHANNELS 3 Zrotation Yrotation Xrotation
				JOINT RightFoot
				{
					OFFSET -2.73334 -7.50979 0.00000
					CHANNELS 3 Zrotation Yrotation Xrotation
					JOINT RightToeBase
					{
						OFFSET -0.25618 -0.70384 2.21822
						CHANNELS 3 Zrotation Yrotation Xrotation
						End Site
						{
							OFFSET -0.00000 -0.00000 1.16381
						}
					}
				}
			}
		}
	}
	JOINT LowerBack
	{
		OFFSET 0 0 0
		CHANNELS 3 Zrotation Yrotation Xrotation
		JOINT Spine
		{
			OFFSET 0.03410 2.01612 -0.22230
			CHANNELS 3 Zrotation Yrotation Xrotation
			JOINT Spine1
			{
				OFFSET 0.03465 2.03012 0.00937
				CHANNELS 3 Zrotation Yrotation Xrotation
				JOINT Neck
				{
					OFFSET 0 0 0
					CHANNELS 3 Zrotation Yrotation Xrotation
					JOINT Neck1
					{
						OFFSET -0.00219 1.70459 0.20857
						CHANNELS 3 Zrotation Yrotation Xrotation
						JOINT Head
						{
							OFFSET 0.02518 1.72339 -0.22179
							CHANNELS 3 Zrotation Yrotation Xrotation
							End Site
							{
								OFFSET 0.00282 1.74122 -0.09823
							}
						}
					}
				}
				JOINT LeftShoulder
				{
					OFFSET 0 0 0
					CHANNELS 3 Zrotation Yrotation Xrotation
					JOINT LeftArm
					{
						OFFSET 3.36358 1.00547 -0.37661
						CHANNELS 3 Zrotation Yrotation Xrotation
						JOINT LeftForeArm
						{
							OFFSET 5.06507 -0.00000 0.00000
							CHANNELS 3 Zrotation Yrotation Xrotation
							JOINT LeftHand
							{
								OFFSET 3.60196 -0.00000 0.00000
								CHANNELS 3 Zrotation Yrotation Xrotation
								JOINT LeftFingerBase
								{
									OFFSET 0 0 0
									CHANNELS 3 Zrotation Yrotation Xrotation
									JOINT LeftHandIndex1
									{
										OFFSET 0.45035 -0.00000 0.00000
										CHANNELS 3 Zrotation Yrotation Xrotation
										End Site
										{
											OFFSET 0.36308 -0.00000 0.00000
										}
									}
								}
								JOINT LThumb
								{
									OFFSET 0 0 0
									CHANNELS 3 Zrotation Yrotation Xrotation
									End Site
									{
										OFFSET 0.36862 -0.00000 0.36862
									}
								}
							}
						}
					}
				}
				JOINT RightShoulder
				{
					OFFSET 0 0 0
					CHANNELS 3 Zrotation Yrotation Xrotation
					JOINT RightArm
					{
						OFFSET -3.50159 0.80383 -0.71526
						CHANNELS 3 Zrotation Yrotation Xrotation
						JOINT RightForeArm
						{
							OFFSET -5.36394 -0.00000 0.00000
							CHANNELS 3 Zrotation Yrotation Xrotation
							JOINT RightHand
							{
								OFFSET -3.58035 -0.00000 0.00000
								CHANNELS 3 Zrotation Yrotation Xrotation
								JOINT RightFingerBase
								{
									OFFSET 0 0 0
									CHANNELS 3 Zrotation Yrotation Xrotation
									JOINT RightHandIndex1
									{
										OFFSET -0.66375 -0.00000 0.00000
										CHANNELS 3 Zrotation Yrotation Xrotation
										End Site
										{
											OFFSET -0.53513 -0.00000 0.00000
										}
									}
								}
								JOINT RThumb
								{
									OFFSET 0 0 0
									CHANNELS 3 Zrotation Yrotation Xrotation
									End Site
									{
										OFFSET -0.54330 -0.00000 0.54330
									}
								}
							}
						}
					}
				}
			}
		}
	}
}
MOTION
Frames: 16
Frame Time: .0083333
0.4834 17.8509 11.4928 -1.1428 -3.6590 -3.1259 0.0000 0.0000 0.0000 -21.9577 -8.1792 -15.9247 2.6882 10.1724 29.5367 0.0784 -6.1966 -6.2005 0.0152 0.7954 2.1860 0.0000 0.0000 0.0000 22.2466 3.0760 -3.3825 -11.8771 -18.3382 65.5986 -0.6694 -7.2685 14.6899 -1.0888 -6.6315 18.6281 2.0660 2.1632 10.4870 1.0034 3.1916 -0.0782 -0.6012 1.5219 -5.9102 -1.1902 -3.4067 -16.2297 1.1201 -4.6947 20.7779 -0.0132 -2.1602 9.2757 0.0000 -0.0000 0.0000 -87.5690 8.4220 21.6121 12.0004 -19.8052 -2.1024 -0.0000 0.0000 -4.1385 28.7007 20.1194 10.6654 -7.1250 0.0000 -0.0000 0.2682 52.6470 0.0505 0.0000 -0.0000 0.0000 87.6191 6.1287 7.2142 -13.8281 22.4884 -2.7620 0.0000 0.0000 3.7855 -19.3619 19.9575 -6.8396 7.1250 -0.0000 -0.0000 5.8031 -9.0152 4.8477
0.4970 17.8617 11.6832 -0.7903 -3.6918 -3.3236 0.0000 0.0000 0.0000 -22.5897 -7.8679 -15.0018 2.6869 10.1700 29.5292 0.1312 -6.2252 -7.2613 0.0032 0.3625 0.9959 0.0000 0.0000 0.0000 21.6367 3.1247 -4.7700 -12.5747 -18.6232 67.7993 -0.5800 -7.8449 13.8206 -1.2800 -7.1699 20.2196 1.6448 2.1091 10.5551 1.0176 3.0677 0.0501 -0.3317 1.4749 -5.8386 -1.3806 -3.3331 -16.3528 1.2156 -4.5576 20.5532 0.0682 -2.1016 9.2259 0.0000 -0.0000 0.0000 -87.5572 8.1634 21.6939 12.0670 -19.9051 -2.1251 -0.0000 0.0000 -4.3935 28.5833 20.1287 10.6194 -7.1250 0.0000 -0.0000 0.1443 52.6347 0.0271 0.0000 -0.0000 0.0000 87.6136 6.1180 6.6097 -13.5574 22.0985 -2.6593 0.0000 0.0000 4.4829 -18.5651 16.4213 -5.4238 7.1250 -0.0000 -0.0000 6.1386 -12.7830 4.6556
0.5128 17.8642 11.8721 -0.6009 -3.7325 -3.4219 0.0000 0.0000 0.0000 -23.0322 -7.5492 -14.1850 2.6919 10.1788 29.5578 0.1799 -6.1166 -8.1029 0.0014 0.2439 0.6702 0.0000 0.0000 0.0000 21.2207 3.2245 -6.2311 -13.2288 -18.8632 69.8347 -0.3514 -7.9349 11.1555 -0.8602 -5.9144 16.5363 1.4717 2.0825 10.6487 0.9971 3.0115 0.0729 -0.2508 1.4514 -5.8757 -1.5225 -3.2747 -16.7092 1.3751 -4.4771 20.7725 0.1485 -2.0525 9.3745 -0.0000 -0.0000 0.0000 -87.3924 7.8641 21.9789 12.0090 -19.8181 -2.1053 -0.0000 0.0000 -4.4346 28.6337 20.6332 10.8903 -7.1250 0.0000 -0.0000 0.0917 53.1992 0.0185 -0.0000 -0.0000 0.0000 87.7313 6.1007 5.5401 -13.2074 21.5904 -2.5291 0.0000 0.0000 5.3404 -17.9034 14.4242 -4.6008 7.1250 -0.0000 -0.0000 6.5194 -14.9222 4.6514
0.5277 17.8691 12.0543 -0.4788 -3.7630 -3.5983 0.0000 0.0000 0.0000 -23.3748 -7.2193 -13.3729 2.6968 10.1873 29.5853 0.2165 -6.0497 -8.7007 0.0027 0.3354 0.9216 0.0000 0.0000 0.0000 20.9093 3.3423 -7.6740 -13.8311 -19.0620 71.6879 -0.0759 -7.6641 6.8878 -0.1242 -2.2723 6.2587 1.4516 2.0783 10.8454 0.9270 3.0031 0.0834 -0.3193 1.4456 -5.9725 -1.4173 -3.2391 -16.4968 1.3045 -4.4367 20.5620 0.1175 -2.0369 9.2570 -0.0000 -0.0000 0.0000 -87.0823 7.5684 22.4916 11.9195 -19.6838 -2.0751 -0.0000 0.0000 -4.7713 28.6200 20.2607 10.7005 -7.1250 0.0000 -0.0000 0.1554 52.7870 0.0298 -0.0000 -0.0000 0.0000 87.9231 6.0224 4.2665 -12.8143 21.0146 -2.3863 0.0000 0.0000 6.3636 -17.7530 14.8432 -4.6887 7.1250 -0.0000 -0.0000 6.6322 -14.5027 4.7928
0.5391 17.8777 12.2334 -0.3771 -3.7833 -3.7088 0.0000 0.0000 0.0000 -23.6603 -6.9055 -12.6345 2.6916 10.1783 29.5561 0.2451 -6.0490 -9.1615 0.0032 0.3644 1.0013 0.0000 0.0000 0.0000 20.6622 3.5226 -9.1643 -14.3639 -19.2207 73.3129 0.0336 -8.0285 4.8953 -0.0794 -1.8171 5.0005 1.3090 1.9995 10.9561 0.9640 2.8845 0.1006 -0.1860 1.3914 -6.0271 -1.3481 -3.1910 -16.0828 1.1226 -4.3420 20.1854 0.0663 -2.0140 9.0430 0.0000 -0.0000 0.0000 -86.9521 7.2487 22.7895 11.7946 -19.4959 -2.0332 -0.0000 0.0000 -5.0993 28.6953 19.1284 10.1689 -7.1250 0.0000 -0.0000 0.4530 51.5529 0.0731 0.0000 -0.0000 0.0000 87.9767 6.0297 3.1276 -12.3753 20.3650 -2.2312 0.0000 0.0000 7.8164 -18.2797 16.4369 -5.3398 7.1250 -0.0000 -0.0000 6.3297 -12.7982 4.8003
0.5478 17.8830 12.4112 -0.1672 -3.8107 -3.7835 0.0000 0.0000 0.0000 -24.0495 -6.6416 -11.8895 2.6710 10.1424 29.4392 0.2743 -5.9930 -9.6021 0.0049 0.4540 1.2474 0.0000 0.0000 0.0000 20.2856 3.7524 -10.6303 -14.8382 -19.3488 74.7490 0.1081 -8.3555 3.3435 -0.0617 -1.6025 4.4082 0.9933 1.8786 11.0181 1.0110 2.6876 0.1078 0.0694 1.3044 -6.0730 -1.4889 -3.0405 -16.0215 1.1547 -4.1052 20.2044 0.1309 -1.9110 9.0393 -0.0000 -0.0000 0.0000 -86.8828 7.1843 23.0308 11.9159 -19.6783 -2.0739 -0.0000 0.0000 -5.4662 28.7591 19.3158 10.2893 -7.1250 0.0000 -0.0000 0.4839 51.7717 0.0807 -0.0000 -0.0000 0.0000 88.0021 6.1164 1.8743 -11.9612 19.7465 -2.0892 0.0000 0.0000 9.6621 -18.8335 18.1328 -6.0593 7.1250 -0.0000 -0.0000 6.0399 -10.9761 4.8069
0.5595 17.8853 12.5945 -0.0181 -3.7430 -3.8887 0.0000 0.0000 0.0000 -24.4066 -6.2858 -11.0769 2.6433 10.0939 29.2813 0.3066 -6.0354 -10.0921 0.0064 0.5162 1.4183 0.0000 0.0000 0.0000 19.9534 3.8673 -11.9491 -15.2216 -19.4435 75.9033 0.1553 -8.6000 2.2327 -0.0653 -1.6486 4.5354 0.8423 1.7560 10.8783 0.9982 2.5010 0.1942 0.1767 1.2184 -5.9094 -1.4119 -2.8907 -16.1576 1.1212 -3.9127 20.4376 0.1272 -1.8164 9.1396 -0.0000 -0.0000 0.0000 -86.6890 7.0666 23.1302 12.1407 -20.0154 -2.1502 -0.0000 0.0000 -5.7841 28.7018 19.5782 10.3965 -7.1250 0.0000 -0.0000 0.3755 52.0508 0.0652 -0.0000 -0.0000 0.0000 88.1152 6.2363 0.6609 -11.4979 19.0473 -1.9353 0.0000 0.0000 10.6092 -18.9436 18.9092 -6.3469 7.1250 -0.0000 -0.0000 6.0100 -10.1573 4.8836
0.5735 17.8848 12.7785 0.3359 -3.5288 -3.9669 0.0000 0.0000 0.0000 -25.0060 -6.0264 -10.2476 2.6078 10.0313 29.0782 0.3371 -6.1178 -10.5447 0.0058 0.4935 1.3560 0.0000 0.0000 0.0000 19.3279 3.7999 -13.3142 -15.5333 -19.5148 76.8381 0.1775 -8.4476 1.1663 -0.0523 -1.4753 4.0575 0.5193 1.6411 10.7560 0.9308 2.3020 0.2235 0.3230 1.1295 -5.8195 -1.3757 -2.8725 -16.0459 1.0052 -3.8726 20.4852 0.0880 -1.8083 9.1316 0.0000 0.0000 0.0000 -86.5027 6.7786 23.4171 12.1504 -20.0298 -2.1535 -0.0000 0.0000 -6.5735 29.0138 17.0683 9.2460 -7.1250 0.0000 -0.0000 1.1089 49.3226 0.1182 0.0000 0.0000 0.0000 88.1706 6.2113 -0.3224 -11.0940 18.4322 -1.8055 0.0000 0.0000 10.9898 -19.0646 19.0385 -6.4319 7.1250 -0.0000 -0.0000 5.9388 -10.0078 4.8431
0.5813 17.8924 12.9486 0.5527 -3.4639 -3.9385 0.0000 0.0000 0.0000 -25.3822 -5.8409 -9.5833 2.5701 9.9642 28.8609 0.3669 -6.1283 -10.9602 0.0049 0.4528 1.2441 0.0000 0.0000 0.0000 18.9893 4.0855 -14.7341 -15.7638 -19.5642 77.5273 0.1944 -8.2967 0.0082 -0.0120 -0.7077 1.9448 0.2662 1.5501 10.7860 0.9251 2.1498 0.2056 0.4820 1.0616 -5.8637 -1.2816 -2.8582 -16.0128 0.7145 -3.8112 20.5441 -0.0189 -1.8045 9.1368 0.0000 -0.0000 0.0000 -86.3716 6.2981 24.2202 11.3523 -18.8262 -1.8880 -0.0000 0.0000 -9.3079 29.8675 4.0713 2.3348 -7.1250 0.0000 -0.0000 2.6727 34.6624 -0.6789 0.0000 -0.0000 0.0000 88.2466 6.2259 -1.2724 -10.8649 18.0809 -1.7338 0.0000 0.0000 11.8411 -19.8071 20.3060 -7.1244 7.1250 -0.0000 -0.0000 5.5405 -8.5918 4.6731
0.5825 17.9052 13.1166 0.4891 -3.3988 -3.9972 0.0000 0.0000 0.0000 -25.4171 -5.6443 -8.8926 2.5333 9.8982 28.6476 0.3758 -6.1038 -11.0767 0.0045 0.4335 1.1910 0.0000 0.0000 0.0000 19.0768 4.3865 -15.9708 -15.9031 -19.5927 77.9430 0.2035 -8.9199 1.0096 -0.1026 -2.0660 5.6881 0.2611 1.4419 10.8757 0.9714 2.0078 0.2765 0.5543 0.9925 -5.8399 -1.2347 -2.7800 -15.9968 0.6872 -3.7082 20.5141 -0.0225 -1.7560 9.1208 -0.0000 0.0000 0.0000 -86.0609 5.5002 23.5526 12.0015 -19.8069 -2.1028 -0.0000 0.0000 -3.5854 28.3473 21.3472 11.1110 -7.1250 0.0000 -0.0000 -0.3691 53.9246 -0.0810 -0.0000 0.0000 0.0000 88.4074 6.1384 -1.8506 -10.8675 18.0849 -1.7346 0.0000 0.0000 12.0295 -20.0379 20.7071 -7.3484 7.1250 -0.0000 -0.0000 5.4216 -8.1420 4.6204
0.5843 17.9117 13.2903 0.3359 -3.1214 -4.0717 0.0000 0.0000 0.0000 -25.3677 -5.5440 -8.1892 2.4962 9.8309 28.4309 0.3577 -6.2177 -10.8494 0.0162 0.8218 2.2586 0.0000 0.0000 0.0000 19.2444 4.4682 -17.1486 -15.9663 -19.6054 78.1314 0.1948 -8.3121 0.0267 -0.1364 -2.3805 6.5584 0.2799 1.2277 10.8312 1.1038 1.7317 0.3634 0.7278 0.8583 -5.7241 -1.3507 -2.6596 -15.9509 0.7871 -3.5345 20.5016 0.0533 -1.6733 9.1107 -0.0000 -0.0000 0.0000 -85.9016 5.0722 23.6660 12.1419 -20.0171 -2.1506 -0.0000 0.0000 -3.6011 27.8531 22.6545 11.5046 -7.1250 0.0000 -0.0000 -1.2267 55.2460 -0.3086 -0.0000 -0.0000 0.0000 88.4927 5.8051 -1.8792 -11.0112 18.3054 -1.7794 0.0000 0.0000 11.5141 -19.5065 19.4787 -6.7369 7.1250 -0.0000 -0.0000 5.6789 -9.4927 4.6883
0.5873 17.9110 13.4590 0.3856 -2.8691 -4.1338 0.0000 0.0000 0.0000 -25.5607 -5.3283 -7.4547 2.4638 9.7718 28.2408 0.3715 -6.3446 -11.0588 0.0204 0.9224 2.5353 0.0000 0.0000 0.0000 19.1467 4.6051 -18.3449 -15.9756 -19.6072 78.1590 0.1853 -7.9134 -0.5703 -0.2594 -3.2769 9.0506 0.1263 1.0664 10.8558 1.1576 1.5013 0.3861 0.9064 0.7499 -5.7166 -1.5094 -2.6583 -15.9260 0.8977 -3.5205 20.6434 0.1183 -1.6666 9.1604 -0.0000 -0.0000 0.0000 -85.6979 4.6640 23.6976 12.3357 -20.3062 -2.2174 -0.0000 0.0000 -3.5487 26.6568 23.8175 11.4598 -7.1250 0.0000 -0.0000 -2.8674 56.2424 -0.7910 -0.0000 -0.0000 0.0000 88.6186 5.4565 -2.1640 -11.0493 18.3637 -1.7914 0.0000 0.0000 11.3120 -19.5627 18.6010 -6.4668 7.1250 -0.0000 -0.0000 5.5885 -10.3979 4.5102
0.5992 17.9170 13.6304 0.8405 -2.6647 -4.1051 0.0000 0.0000 0.0000 -26.2447 -5.0354 -6.7378 2.4376 9.7235 28.0860 0.4278 -6.4693 -11.8155 0.0062 0.5104 1.4026 0.0000 0.0000 0.0000 18.4708 4.7258 -19.6024 -15.9251 -19.5971 78.0086 0.1637 -7.2679 -1.2918 -0.3861 -3.9901 11.0488 -0.2779 0.9696 10.7647 1.0465 1.3159 0.3764 1.0482 0.6681 -5.6789 -1.4137 -2.6708 -15.8981 0.7175 -3.5242 20.8163 0.0396 -1.6803 9.2097 0.0000 0.0000 0.0000 -85.3749 4.4469 24.5177 12.4448 -20.4683 -2.2554 -0.0000 0.0000 -2.8123 27.7616 23.2378 11.7326 -7.1250 0.0000 -0.0000 -1.4894 55.8579 -0.3968 0.0000 0.0000 0.0000 88.7416 4.9460 -2.1763 -11.1962 18.5884 -1.8380 0.0000 0.0000 10.8899 -19.3824 19.8205 -6.8026 7.1250 -0.0000 -0.0000 5.7810 -9.1546 4.8128
0.6073 17.9244 13.8056 0.8713 -2.5225 -4.1281 0.0000 0.0000 0.0000 -26.4087 -4.7141 -5.9966 2.4167 9.6848 27.9621 0.4720 -6.6023 -12.3848 0.0050 0.4588 1.2606 0.0000 0.0000 0.0000 18.3991 5.0093 -20.6638 -15.8082 -19.5734 77.6596 0.1339 -6.4751 -2.5231 -0.3083 -3.5695 9.8684 -0.2342 0.8728 10.7347 1.0301 1.1914 0.3844 1.0261 0.6054 -5.6497 -1.3034 -2.6659 -15.8003 0.5399 -3.5065 20.8551 -0.0361 -1.6836 9.1991 -0.0000 -0.0000 0.0000 -85.0147 4.1214 25.3836 12.4896 -20.5349 -2.2711 -0.0000 0.0000 -2.6555 28.7617 22.8618 12.0379 -7.1250 0.0000 -0.0000 -0.2978 55.6657 -0.0780 -0.0000 -0.0000 0.0000 88.8112 4.6205 -2.4708 -11.0410 18.3511 -1.7888 0.0000 0.0000 10.3581 -18.9940 21.5461 -7.2046 7.1250 -0.0000 -0.0000 6.1465 -7.4232 5.3324
0.6075 17.9210 13.9745 0.7308 -2.3832 -4.1761 0.0000 0.0000 0.0000 -26.3429 -4.4114 -5.3803 2.3984 9.6507 27.8530 0.4777 -6.5983 -12.4537 0.0072 0.5484 1.5069 0.0000 0.0000 0.0000 18.6034 5.3643 -21.6607 -15.6429 -19.5386 77.1661 0.1022 -5.8481 -3.7069 -0.2293 -3.0822 8.5077 -0.1493 0.7596 10.8963 1.1132 1.0567 0.4056 1.0846 0.5380 -5.7153 -1.4261 -2.6631 -15.7679 0.5715 -3.4782 20.8147 -0.0007 -1.6770 9.1819 0.0000 -0.0000 0.0000 -84.7077 3.3281 25.7542 12.3972 -20.3976 -2.2388 -0.0000 0.0000 -2.4471 28.6227 24.1021 12.5635 -7.1250 0.0000 -0.0000 -0.7958 56.9835 -0.2337 0.0000 -0.0000 0.0000 88.8275 4.6707 -3.2002 -10.6735 17.7861 -1.6748 0.0000 0.0000 10.4049 -18.7824 21.9936 -7.2583 7.1250 -0.0000 -0.0000 6.3124 -6.9925 5.5315
0.6100 17.9149 14.1417 0.8993 -2.0207 -4.1825 0.0000 0.0000 0.0000 -26.6170 -4.1714 -4.9039 2.4035 9.6602 27.8833 0.4847 -6.8325 -12.5727 0.0115 0.6914 1.9001 0.0000 0.0000 0.0000 18.3565 5.4109 -22.7356 -15.4241 -19.4904 76.5109 0.0643 -5.2140 -4.7180 -0.2765 -3.3822 9.3446 -0.3354 0.5695 10.9813 1.0943 0.7800 0.3854 1.2125 0.4070 -5.7805 -1.6642 -2.6221 -15.4801 0.7878 -3.4126 20.6261 0.1261 -1.6436 9.0719 0.0000 -0.0000 0.0000 -84.4744 2.8957 25.9039 12.5191 -20.5785 -2.2815 -0.0000 0.0000 -1.8799 28.7698 25.1517 13.1356 -7.1250 0.0000 -0.0000 -0.9551 58.1532 -0.3074 0.0000 -0.0000 0.0000 88.9196 4.3027 -2.9906 -10.7531 17.9088 -1.6992 0.0000 0.0000 9.8721 -19.5689 22.2541 -7.6672 7.1250 -0.0000 -0.0000 5.8368 -6.6073 5.1539
